<?xml version="1.0" encoding="UTF-8"?><svg id="Layer_1" xmlns="http://www.w3.org/2000/svg" viewBox="0 0 191.2 182.71"><defs><style>.cls-1,.cls-2{stroke-width:0px;}.cls-2{fill:#fff;}</style></defs><polygon class="cls-1" points="134.99 67.54 134.99 114.08 133.49 114.94 96.19 136.48 94.69 137.34 93.19 136.48 55.89 114.94 54.39 114.08 54.39 67.54 55.89 66.67 93.19 45.14 94.69 44.27 96.19 45.14 133.49 66.67 134.99 67.54"/><path class="cls-2" d="m94.69,35.61l-47.8,27.6v55.2l47.8,27.59,47.8-27.59v-55.2l-47.8-27.6Zm-40.3,31.93l1.5-.87,36.12-20.85.54,26.62-38.16,21.38v-26.28Zm80.6,46.54l-1.5.86-37.3,21.54-1.5.86-1.5-.86-37.3-21.54-1.5-.86v-12.74l.03.35,44.2-25.77-.61-29.73,14.03,8.1v46.12l6,3.38v-46.04l15.45,8.92,1.5.87v46.54Z"/><path class="cls-1" d="m94.69,33.88l-49.3,28.46v56.93l49.3,28.47,49.3-28.47v-56.93l-49.3-28.46Zm46.3,83.66l-46.3,26.73-46.3-26.73v-53.46l46.3-26.74,46.3,26.74v53.46Z"/></svg>