<svg width="529" height="4042" viewBox="0 0 529 4042" fill="none" xmlns="http://www.w3.org/2000/svg">
<rect width="390" height="4042" transform="translate(79)" fill="#28282D"/>
<path d="M119.836 2778.88C133.752 2773.55 148.415 2769.86 163.318 2770C234.099 2770.69 270.345 2827.49 266.672 2880.11C265.392 2898.44 259.954 2918.14 246.32 2929.4C222.986 2948.68 189.46 2934.08 162.579 2946.11C139.105 2956.62 125.835 2984.93 104.095 2999.48C77.7409 3017.13 41.8384 3010.03 21.3875 2986.53C0.936625 2963.03 -4.57408 2926.34 3.68314 2893.98C11.9419 2861.61 32.5929 2833.61 57.5321 2813.55C76.4695 2798.33 97.7873 2787.34 119.836 2778.88Z" fill="#F9F6ED" fill-opacity="0.5"/>
<path d="M60.0381 2816.67C78.5665 2801.78 99.4898 2790.97 121.268 2782.62C134.906 2777.39 149.05 2773.87 163.279 2774C231.384 2774.67 266.222 2829.12 262.681 2879.83C261.424 2897.84 256.109 2916.13 243.773 2926.32L243.773 2926.32C233.275 2934.99 220.363 2936.21 205.708 2936.47C203.995 2936.5 202.254 2936.52 200.491 2936.54C187.613 2936.66 173.592 2936.8 160.944 2942.46C148.319 2948.11 138.623 2958.46 129.682 2968.64C128.649 2969.81 127.627 2970.99 126.611 2972.15C118.627 2981.31 111.028 2990.03 101.87 2996.16L101.869 2996.16C77.3933 3012.55 43.7011 3006.07 24.4049 2983.9C5.02379 2961.63 -0.46035 2926.4 7.55898 2894.97L3.68828 2893.98L7.55899 2894.97C15.5635 2863.59 35.6348 2836.29 60.0381 2816.67ZM60.0381 2816.67L57.5321 2813.55L60.0381 2816.67Z" stroke="#F9F6ED" stroke-opacity="0.5" stroke-width="8"/>
<path d="M402.55 3581.16C388.431 3585.93 373.63 3589.03 358.745 3588.28C288.05 3584.73 254.125 3526.52 259.919 3474.1C261.938 3455.83 268.167 3436.37 282.243 3425.66C306.336 3407.34 339.246 3423.29 366.591 3412.35C390.47 3402.79 404.872 3375.04 427.181 3361.38C454.226 3344.81 489.813 3353.36 509.299 3377.66C528.784 3401.97 532.81 3438.85 523.253 3470.85C513.695 3502.86 491.931 3530.01 466.203 3549.04C446.666 3563.48 424.922 3573.61 402.55 3581.16Z" fill="#F9F6ED" fill-opacity="0.5"/>
<path d="M263.895 3474.54L263.895 3474.54C265.878 3456.59 271.927 3438.53 284.664 3428.85L284.665 3428.85C295.504 3420.61 308.454 3419.91 323.108 3420.24C324.821 3420.28 326.561 3420.33 328.323 3420.38C341.196 3420.78 355.211 3421.21 368.077 3416.06C380.92 3410.92 391.026 3400.97 400.371 3391.16C401.45 3390.03 402.519 3388.9 403.581 3387.78C411.928 3378.95 419.872 3370.55 429.27 3364.79L429.271 3364.79C454.389 3349.4 487.792 3357.23 506.178 3380.16C524.644 3403.2 528.702 3438.62 519.421 3469.71C510.157 3500.73 489 3527.2 463.825 3545.82C444.71 3559.95 423.368 3569.91 401.27 3577.37C387.432 3582.05 373.158 3585 358.946 3584.29C290.923 3580.87 258.311 3525.06 263.895 3474.54Z" stroke="#F9F6ED" stroke-opacity="0.5" stroke-width="8"/>
</svg>
