<svg width="1447" height="3346" viewBox="0 0 1447 3346" fill="none" xmlns="http://www.w3.org/2000/svg">
<rect width="1280" height="3346" transform="translate(105)" fill="#28282D"/>
<path d="M206.067 1871.26C229.997 1862.09 255.211 1855.76 280.838 1856.01C402.552 1857.19 464.88 1954.72 458.563 2045.08C456.362 2076.57 447.011 2110.39 423.567 2129.73C383.443 2162.83 325.792 2137.75 279.567 2158.42C239.203 2176.47 216.382 2225.08 179 2250.07C133.682 2280.39 71.9444 2268.18 36.7775 2227.83C1.6106 2187.47 -7.8655 2124.48 6.33345 2068.9C20.5351 2013.31 56.046 1965.23 98.9309 1930.79C131.495 1904.65 168.153 1885.77 206.067 1871.26Z" fill="#F9F6ED" fill-opacity="0.5"/>
<path d="M421.022 2126.64L421.022 2126.64C402.128 2142.23 378.987 2144.29 353.783 2144.74C350.804 2144.79 347.792 2144.82 344.756 2144.85C322.548 2145.08 299.092 2145.31 277.934 2154.77C256.864 2164.19 240.558 2181.5 225.162 2199C223.394 2201.01 221.638 2203.02 219.887 2205.03C206.198 2220.71 192.865 2235.99 176.777 2246.75L176.777 2246.75C133.334 2275.81 73.8046 2264.23 39.7931 2225.2C5.69759 2186.08 -3.75134 2124.53 10.209 2069.89L6.33345 2068.9L10.209 2069.89C24.1557 2015.3 59.0863 1967.92 101.435 1933.91C133.591 1908.1 169.854 1889.41 207.498 1874.99C231.15 1865.93 255.845 1859.76 280.799 1860.01C399.842 1861.17 460.756 1956.36 454.573 2044.8C452.395 2075.97 443.168 2108.37 421.022 2126.64Z" stroke="#F9F6ED" stroke-opacity="0.5" stroke-width="8"/>
<path d="M1215.9 2765.71C1201.65 2770.09 1186.89 2773.01 1171.98 2773.27C1040.19 2775.49 976.598 2671.15 986.94 2577.58C990.395 2546.3 1001.06 2513 1025.15 2494.68C1066.39 2463.32 1122.71 2490.61 1169.52 2471.89C1210.39 2455.54 1235.04 2408.04 1273.22 2384.65C1319.51 2356.28 1380.42 2370.92 1413.77 2412.52C1447.12 2454.12 1454.01 2517.24 1437.66 2572.02C1421.3 2626.81 1384.04 2673.27 1340.01 2705.84C1302.17 2733.82 1259.49 2752.32 1215.9 2765.71Z" fill="#F9F6ED" fill-opacity="0.5"/>
<path d="M1027.57 2497.86L1027.57 2497.86C1046.98 2483.1 1070.07 2481.98 1095.16 2482.55C1098.12 2482.61 1101.12 2482.7 1104.14 2482.79C1126.23 2483.47 1149.58 2484.17 1171 2475.6C1192.34 2467.06 1209.26 2450.48 1225.27 2433.67C1227.11 2431.74 1228.94 2429.8 1230.76 2427.88C1245.01 2412.8 1258.88 2398.13 1275.31 2388.06L1275.31 2388.06C1319.67 2360.88 1378.4 2374.79 1410.65 2415.02C1442.98 2455.35 1449.9 2517.02 1433.82 2570.87C1417.76 2624.68 1381.11 2670.46 1337.63 2702.62C1300.27 2730.25 1258.04 2748.58 1214.72 2761.89C1200.73 2766.19 1186.35 2769.02 1171.92 2769.27C1107.18 2770.36 1059.51 2745.32 1029.24 2708.8C998.895 2672.18 985.856 2623.8 990.915 2578.02L986.94 2577.58L990.915 2578.01C994.335 2547.06 1004.82 2515.16 1027.57 2497.86Z" stroke="#F9F6ED" stroke-opacity="0.5" stroke-width="8"/>
</svg>
