<svg width="1447" height="3346" viewBox="0 0 1447 3346" fill="none" xmlns="http://www.w3.org/2000/svg">
<rect width="1280" height="3346" transform="translate(105)" fill="#F9F6ED"/>
<path d="M206.067 1874.26C229.997 1865.09 255.211 1858.76 280.838 1859.01C402.552 1860.19 464.88 1957.72 458.563 2048.08C456.362 2079.57 447.011 2113.39 423.567 2132.73C383.443 2165.83 325.792 2140.75 279.567 2161.42C239.203 2179.47 216.382 2228.08 179 2253.07C133.682 2283.39 71.9444 2271.18 36.7775 2230.83C1.6106 2190.47 -7.8655 2127.48 6.33345 2071.9C20.5351 2016.31 56.046 1968.23 98.9309 1933.79C131.495 1907.65 168.153 1888.77 206.067 1874.26Z" fill="#28282D" fill-opacity="0.5"/>
<path d="M421.022 2129.64L421.022 2129.64C402.128 2145.23 378.987 2147.29 353.783 2147.74C350.804 2147.79 347.792 2147.82 344.756 2147.85C322.548 2148.08 299.092 2148.31 277.934 2157.77C256.864 2167.19 240.558 2184.5 225.162 2202C223.394 2204.01 221.638 2206.02 219.887 2208.03C206.198 2223.71 192.865 2238.99 176.777 2249.75L176.777 2249.75C133.334 2278.81 73.8046 2267.23 39.7931 2228.2C5.69759 2189.08 -3.75134 2127.53 10.209 2072.89L6.33345 2071.9L10.209 2072.89C24.1557 2018.3 59.0863 1970.92 101.435 1936.91C133.591 1911.1 169.854 1892.41 207.498 1877.99C231.15 1868.93 255.845 1862.76 280.799 1863.01C399.842 1864.17 460.756 1959.36 454.573 2047.8C452.395 2078.97 443.168 2111.37 421.022 2129.64Z" stroke="#28282D" stroke-opacity="0.5" stroke-width="8"/>
<path d="M1215.9 2768.71C1201.65 2773.09 1186.89 2776.01 1171.98 2776.27C1040.19 2778.49 976.598 2674.15 986.94 2580.58C990.395 2549.3 1001.06 2516 1025.15 2497.68C1066.39 2466.32 1122.71 2493.61 1169.52 2474.89C1210.39 2458.54 1235.04 2411.04 1273.22 2387.65C1319.51 2359.28 1380.42 2373.92 1413.77 2415.52C1447.12 2457.12 1454.01 2520.24 1437.66 2575.02C1421.3 2629.81 1384.04 2676.27 1340.01 2708.84C1302.17 2736.82 1259.49 2755.32 1215.9 2768.71Z" fill="#28282D" fill-opacity="0.5"/>
<path d="M1027.57 2500.86L1027.57 2500.86C1046.98 2486.1 1070.07 2484.98 1095.16 2485.55C1098.12 2485.61 1101.12 2485.7 1104.14 2485.79C1126.23 2486.47 1149.58 2487.17 1171 2478.6C1192.34 2470.06 1209.26 2453.48 1225.27 2436.67C1227.11 2434.74 1228.94 2432.8 1230.76 2430.88C1245.01 2415.8 1258.88 2401.13 1275.31 2391.06L1275.31 2391.06C1319.67 2363.88 1378.4 2377.79 1410.65 2418.02C1442.98 2458.35 1449.9 2520.02 1433.82 2573.87C1417.76 2627.68 1381.11 2673.46 1337.63 2705.62C1300.27 2733.25 1258.04 2751.58 1214.72 2764.89C1200.73 2769.19 1186.35 2772.02 1171.92 2772.27C1107.18 2773.36 1059.51 2748.32 1029.24 2711.8C998.895 2675.18 985.856 2626.8 990.915 2581.02L986.94 2580.58L990.915 2581.01C994.335 2550.06 1004.82 2518.16 1027.57 2500.86Z" stroke="#28282D" stroke-opacity="0.5" stroke-width="8"/>
</svg>
