<svg width="390" height="3121" viewBox="0 0 390 3121" fill="none" xmlns="http://www.w3.org/2000/svg">
<g clip-path="url(#clip0_660_399)">
<rect width="390" height="3121" fill="#F9F6ED"/>
<path d="M40.8359 1857.88C54.7518 1852.55 69.415 1848.86 84.3181 1849C155.099 1849.69 191.345 1906.49 187.672 1959.11C186.392 1977.44 180.954 1997.14 167.32 2008.4C143.986 2027.68 110.46 2013.08 83.5786 2025.11C60.1053 2035.62 46.8345 2063.93 25.0954 2078.48C-1.25906 2096.13 -37.1616 2089.03 -57.6125 2065.53C-78.0634 2042.03 -83.5741 2005.34 -75.3169 1972.98C-67.0581 1940.61 -46.4071 1912.61 -21.4679 1892.55C-2.53048 1877.33 18.7873 1866.34 40.8359 1857.88Z" fill="#28282D" fill-opacity="0.5"/>
<path d="M-18.9619 1895.67C-0.433525 1880.78 20.4898 1869.97 42.2681 1861.62C55.9063 1856.39 70.0497 1852.87 84.2791 1853C152.384 1853.67 187.222 1908.12 183.681 1958.83C182.424 1976.84 177.109 1995.13 164.773 2005.32L164.773 2005.32C154.275 2013.99 141.363 2015.21 126.708 2015.47C124.995 2015.5 123.254 2015.52 121.491 2015.54C108.613 2015.66 94.5919 2015.8 81.9441 2021.46C69.3191 2027.11 59.6232 2037.46 50.6815 2047.64C49.6491 2048.81 48.6268 2049.99 47.6108 2051.15C39.627 2060.31 32.028 2069.03 22.8701 2075.16L22.8695 2075.16C-1.60671 2091.55 -35.2989 2085.07 -54.5951 2062.9C-73.9762 2040.63 -79.4603 2005.4 -71.441 1973.97L-75.3117 1972.98L-71.441 1973.97C-63.4365 1942.59 -43.3652 1915.29 -18.9619 1895.67ZM-18.9619 1895.67L-21.4679 1892.55L-18.9619 1895.67Z" stroke="#28282D" stroke-opacity="0.5" stroke-width="8"/>
<path d="M323.55 2660.16C309.431 2664.93 294.63 2668.03 279.745 2667.28C209.05 2663.73 175.125 2605.52 180.919 2553.1C182.938 2534.83 189.167 2515.37 203.243 2504.66C227.336 2486.34 260.246 2502.29 287.591 2491.35C311.47 2481.79 325.872 2454.04 348.181 2440.38C375.226 2423.81 410.813 2432.36 430.299 2456.66C449.784 2480.97 453.81 2517.85 444.253 2549.85C434.695 2581.86 412.931 2609.01 387.203 2628.04C367.666 2642.48 345.922 2652.61 323.55 2660.16Z" fill="#28282D" fill-opacity="0.5"/>
<path d="M184.895 2553.54L184.895 2553.54C186.878 2535.59 192.927 2517.53 205.664 2507.85L205.665 2507.85C216.504 2499.61 229.454 2498.91 244.108 2499.24C245.821 2499.28 247.561 2499.33 249.323 2499.38C262.196 2499.78 276.211 2500.21 289.077 2495.06C301.92 2489.92 312.026 2479.97 321.371 2470.16C322.45 2469.03 323.519 2467.9 324.581 2466.78C332.928 2457.95 340.872 2449.55 350.27 2443.79L350.271 2443.79C375.389 2428.4 408.792 2436.23 427.178 2459.16C445.644 2482.2 449.702 2517.62 440.421 2548.71C431.157 2579.73 410 2606.2 384.825 2624.82C365.71 2638.95 344.368 2648.91 322.27 2656.37C308.432 2661.05 294.158 2664 279.946 2663.29C211.923 2659.87 179.311 2604.06 184.895 2553.54Z" stroke="#28282D" stroke-opacity="0.5" stroke-width="8"/>
</g>
<defs>
<clipPath id="clip0_660_399">
<rect width="390" height="3121" fill="white"/>
</clipPath>
</defs>
</svg>
