<svg width="1280" height="2591" viewBox="0 0 1280 2591" fill="none" xmlns="http://www.w3.org/2000/svg">
<g clip-path="url(#clip0_667_1072)">
<rect width="1280" height="2591" fill="#F9F6ED"/>
<path d="M101.067 1119.26C124.997 1110.09 150.211 1103.76 175.838 1104.01C297.552 1105.19 359.88 1202.72 353.563 1293.08C351.362 1324.57 342.011 1358.39 318.567 1377.73C278.443 1410.83 220.792 1385.75 174.567 1406.42C134.203 1424.47 111.382 1473.08 74.0003 1498.07C28.6817 1528.39 -33.0556 1516.18 -68.2225 1475.83C-103.389 1435.47 -112.865 1372.48 -98.6665 1316.9C-84.4649 1261.31 -48.954 1213.23 -6.06906 1178.79C26.4954 1152.65 63.153 1133.77 101.067 1119.26Z" fill="#28282D" fill-opacity="0.5"/>
<path d="M316.022 1374.64L316.022 1374.64C297.128 1390.23 273.987 1392.29 248.783 1392.74C245.804 1392.79 242.792 1392.82 239.756 1392.85C217.548 1393.08 194.092 1393.31 172.934 1402.77C151.864 1412.19 135.558 1429.5 120.162 1447C118.394 1449.01 116.638 1451.02 114.887 1453.03C101.198 1468.71 87.865 1483.99 71.7771 1494.75L71.7765 1494.75C28.334 1523.81 -31.1954 1512.23 -65.2069 1473.2C-99.3024 1434.08 -108.751 1372.53 -94.791 1317.89L-98.6665 1316.9L-94.791 1317.89C-80.8443 1263.3 -45.9137 1215.92 -3.56465 1181.91C28.5906 1156.1 64.8537 1137.41 102.498 1122.99C126.15 1113.93 150.845 1107.76 175.799 1108.01C294.842 1109.17 355.756 1204.36 349.573 1292.8C347.395 1323.97 338.168 1356.37 316.022 1374.64Z" stroke="#28282D" stroke-opacity="0.5" stroke-width="8"/>
<path d="M1110.9 2013.71C1096.65 2018.09 1081.89 2021.01 1066.98 2021.27C935.186 2023.49 871.598 1919.15 881.94 1825.58C885.395 1794.3 896.056 1761 920.149 1742.68C961.386 1711.32 1017.71 1738.61 1064.52 1719.89C1105.39 1703.54 1130.04 1656.04 1168.22 1632.65C1214.51 1604.28 1275.42 1618.92 1308.77 1660.52C1342.12 1702.12 1349.01 1765.24 1332.66 1820.02C1316.3 1874.81 1279.04 1921.27 1235.01 1953.84C1197.17 1981.82 1154.49 2000.32 1110.9 2013.71Z" fill="#28282D" fill-opacity="0.5"/>
<path d="M922.57 1745.86L922.57 1745.86C941.982 1731.1 965.072 1729.98 990.156 1730.55C993.121 1730.61 996.117 1730.7 999.137 1730.79C1021.23 1731.47 1044.58 1732.17 1066 1723.6C1087.34 1715.06 1104.26 1698.48 1120.27 1681.67C1122.11 1679.74 1123.94 1677.8 1125.76 1675.88C1140.01 1660.8 1153.88 1646.13 1170.31 1636.06L1170.31 1636.06C1214.67 1608.88 1273.4 1622.79 1305.65 1663.02C1337.98 1703.35 1344.9 1765.02 1328.82 1818.87C1312.76 1872.68 1276.11 1918.46 1232.63 1950.62C1195.27 1978.25 1153.04 1996.58 1109.72 2009.89C1095.73 2014.19 1081.35 2017.02 1066.92 2017.27C1002.18 2018.36 954.511 1993.32 924.239 1956.8C893.895 1920.18 880.856 1871.8 885.915 1826.02L881.94 1825.58L885.915 1826.01C889.335 1795.06 899.816 1763.16 922.57 1745.86Z" stroke="#28282D" stroke-opacity="0.5" stroke-width="8"/>
</g>
<defs>
<clipPath id="clip0_667_1072">
<rect width="1280" height="2591" fill="white"/>
</clipPath>
</defs>
</svg>
